<?xml version="1.0" standalone="no"?>
<!DOCTYPE svg PUBLIC "-//W3C//DTD SVG 20010904//EN"
 "http://www.w3.org/TR/2001/REC-SVG-20010904/DTD/svg10.dtd">
<svg version="1.0" xmlns="http://www.w3.org/2000/svg"
 width="600.000000pt" height="600.000000pt" viewBox="0 0 600.000000 600.000000"
 preserveAspectRatio="xMidYMid meet">
<metadata>
Created by potrace 1.11, written by Peter Selinger 2001-2013
</metadata>
<g transform="translate(0.000000,600.000000) scale(0.100000,-0.100000)"
fill="#000000" stroke="none">
<path d="M3625 5224 c-576 -46 -1097 -207 -1563 -483 -968 -572 -1593 -1622
-1682 -2826 -5 -77 -10 -186 -10 -242 0 -57 -2 -103 -4 -103 -2 0 -28 11 -58
24 -76 34 -160 58 -170 48 -12 -12 37 -54 142 -120 95 -59 95 -60 97 -103 6
-100 25 -243 39 -289 25 -85 47 -60 63 71 6 46 11 109 11 141 0 32 2 58 4 58
2 0 43 -19 92 -41 996 -461 2125 -486 3074 -67 503 222 966 583 1315 1028 339
430 576 945 679 1475 43 221 50 314 51 638 0 299 -1 319 -18 332 -33 24 -389
181 -528 234 -253 94 -578 172 -859 206 -128 16 -563 28 -675 19z m631 -254
c261 -20 499 -63 751 -135 146 -42 447 -155 476 -178 12 -10 13 -40 6 -178
-23 -478 -137 -914 -354 -1354 -176 -356 -378 -638 -655 -915 -571 -571 -1270
-899 -2110 -991 -169 -19 -573 -16 -758 4 -352 39 -690 122 -1019 249 l-102
39 5 72 c45 646 216 1210 527 1732 473 797 1271 1367 2212 1580 314 71 703
100 1021 75z"/>
<path d="M5085 4646 c-414 -79 -1079 -385 -1875 -864 -1394 -838 -2613 -1847
-2655 -2198 -5 -39 -5 -39 6 -9 107 278 841 895 1915 1612 1134 757 2219 1330
2703 1428 50 11 112 16 158 13 73 -3 75 -3 42 11 -46 20 -208 23 -294 7z"/>
</g>
</svg>
